Coordinates
version=1
nRows=17
nColumns=24
inDegrees=yes

Units are S.I. units (second, meters, Newtons, ...)
Angles are in degrees.

endheader
time	pelvis_tilt	pelvis_list	pelvis_rotation	pelvis_tx	pelvis_ty	pelvis_tz	hip_flexion_r	hip_adduction_r	hip_rotation_r	knee_angle_r	ankle_angle_r	subtalar_angle_r	mtp_angle_r	hip_flexion_l	hip_adduction_l	hip_rotation_l	knee_angle_l	ankle_angle_l	subtalar_angle_l	mtp_angle_l	lumbar_extension	lumbar_bending	lumbar_rotation
      4.07500000	    -12.65578110	      8.54205996	     -8.54826651	     -0.88696736	     -0.06268406	      0.45733514	     22.38408077	     -8.42721822	      4.86574397	    -69.02377631	    -26.09757327	      2.97532217	     21.73703510	     36.98100104	      8.73598325	     -5.72808463	    -35.11352822	      7.68505012	     16.35199507	     12.76525217	     14.30616669	     -7.54280530	     13.38174426
      4.08000000	    -12.27918406	      8.70603738	     -8.52511826	     -0.87890902	     -0.06088564	      0.45706299	     23.00636161	     -8.50383795	      4.93717972	    -69.61066080	    -25.15988616	      2.57206462	     22.29273289	     35.70273250	      9.16118566	     -5.65783514	    -34.51392656	      8.11580846	     16.45440794	     12.60135657	     14.01041098	     -7.74862788	     13.21481496
      4.08500000	    -11.88028599	      8.83102784	     -8.52006623	     -0.87082937	     -0.05899814	      0.45680333	     23.58565011	     -8.52685158	      5.01332013	    -70.09225699	    -24.23711836	      2.28992893	     22.86300482	     34.36684714	      9.55899299	     -5.52987122	    -33.86335894	      8.48555640	     16.49660041	     12.44054212	     13.69392081	     -7.90860139	     13.05757556
      4.09000000	    -11.48698627	      8.92302456	     -8.52759884	     -0.86269703	     -0.05706827	      0.45657153	     24.14856608	     -8.50377367	      5.07996234	    -70.47077475	    -23.33791965	      2.10292143	     23.42023981	     33.00596517	      9.92907835	     -5.33613662	    -33.17234200	      8.79919332	     16.49689057	     12.29861456	     13.38911613	     -8.03147458	     12.87310613
      4.09500000	    -11.07458707	      8.97342421	     -8.53401776	     -0.85453882	     -0.05507207	      0.45634197	     24.65820878	     -8.42615873	      5.14252840	    -70.74532660	    -22.44984366	      2.02608965	     23.98125500	     31.59119020	     10.27494223	     -5.07561012	    -32.43204481	      9.04888487	     16.43419276	     12.14737660	     13.06577800	     -8.10781420	     12.69448567
      4.10000000	    -10.63141937	      8.95710340	     -8.57347548	     -0.84640436	     -0.05303427	      0.45612176	     25.10830867	     -8.27064925	      5.19567081	    -70.91659946	    -21.56040145	      2.04599697	     24.57824423	     30.12307918	     10.56340149	     -4.74766412	    -31.67336983	      9.24807359	     16.23723132	     11.98971229	     12.69404479	     -8.10695946	     12.56723888
      4.10500000	    -10.22418857	      8.91076594	     -8.58784283	     -0.83819322	     -0.05099134	      0.45590064	     25.55764729	     -8.07832459	      5.21645497	    -70.98535573	    -20.71622021	      2.13178686	     25.12043364	     28.65586569	     10.82973377	     -4.34319078	    -30.86552798	      9.39018990	     16.03601131	     11.84132917	     12.37478109	     -8.07478913	     12.37937100
      4.11000000	     -9.81349271	      8.80900472	     -8.61713192	     -0.83002036	     -0.04895556	      0.45568806	     25.97622126	     -7.81498523	      5.22751371	    -70.96329713	    -19.88332324	      2.27974631	     25.64216234	     27.16913162	     11.04258655	     -3.88149030	    -30.04155328	      9.47755318	     15.72675337	     11.69136222	     12.03675974	     -7.97971262	     12.20220744
      4.11500000	     -9.42192803	      8.66802674	     -8.63110533	     -0.82184689	     -0.04694495	      0.45547600	     26.38080566	     -7.50699419	      5.20759604	    -70.84929008	    -19.07349663	      2.47135022	     26.11925110	     25.68297204	     11.21767967	     -3.36313952	    -29.19501912	      9.51165865	     15.36606802	     11.54569777	     11.71401102	     -7.84529658	     11.99812773
      4.12000000	     -9.03008434	      8.51335306	     -8.64296695	     -0.81372007	     -0.04500101	      0.45525298	     26.76868387	     -7.18512438	      5.17084841	    -70.66376164	    -18.26651639	      2.67783821	     26.56574728	     24.18843833	     11.38134291	     -2.79967747	    -28.32748700	      9.49100315	     14.91986459	     11.42977431	     11.37817301	     -7.69930584	     11.77387218
      4.12500000	     -8.67848513	      8.29759752	     -8.62454738	     -0.80556889	     -0.04308708	      0.45501916	     27.14958458	     -6.79822181	      5.08821115	    -70.37860357	    -17.50030231	      2.92987800	     26.92379114	     22.71349683	     11.47969629	     -2.16948354	    -27.44887043	      9.43880190	     14.44920926	     11.29527730	     11.08201977	     -7.48916852	     11.51840775
      4.13000000	     -8.33803538	      8.06769857	     -8.59073562	     -0.79740845	     -0.04121949	      0.45478562	     27.51256433	     -6.40191136	      4.97830767	    -70.01151598	    -16.75107068	      3.19262423	     27.20703510	     21.23136548	     11.56059750	     -1.48531233	    -26.54085344	      9.32385596	     13.92339769	     11.16310353	     10.79821613	     -7.26988029	     11.28023195
      4.13500000	     -8.03904132	      7.77576032	     -8.53431771	     -0.78931444	     -0.03944061	      0.45453385	     27.88449797	     -5.93444548	      4.83720863	    -69.56359636	    -16.04340994	      3.47052264	     27.40506727	     19.79893301	     11.55960334	     -0.79972105	    -25.66305332	      9.23829036	     13.39370814	     10.98791579	     10.53469860	     -6.98239404	     10.94538933
      4.14000000	     -7.75003843	      7.48138506	     -8.46335094	     -0.78121486	     -0.03772459	      0.45427668	     28.24094443	     -5.47355308	      4.67384002	    -69.03843697	    -15.35425014	      3.73451135	     27.52140516	     18.36299893	     11.54727003	     -0.07884862	    -24.76063794	      9.11411502	     12.83559533	     10.79118381	     10.28332459	     -6.69745562	     10.63451698
      4.14500000	     -7.48959507	      7.16542549	     -8.36902383	     -0.77314367	     -0.03609546	      0.45400596	     28.60030730	     -4.99468333	      4.48478173	    -68.43982133	    -14.70220992	      3.98660406	     27.55394770	     16.95566797	     11.49496551	      0.64595026	    -23.85827631	      8.98249481	     12.28270967	     10.59129448	     10.05315225	     -6.39225427	     10.30205648
      4.15000000	     -7.23958731	      6.83900484	     -8.25499192	     -0.76509182	     -0.03453756	      0.45372326	     28.94298488	     -4.51532355	      4.27567518	    -67.76535906	    -14.07101378	      4.22298843	     27.49981515	     15.55404992	     11.41689153	      1.38444394	    -22.94578431	      8.83639755	     11.72172110	     10.38462926	      9.83075666	     -6.08060978	      9.95208930
      4.15500000	     -7.01641496	      6.50065126	     -8.12199767	     -0.75706723	     -0.03306489	      0.45343832	     29.28855310	     -4.02875254	      4.05023490	    -67.01677160	    -13.47978613	      4.43522028	     27.36969714	     14.18411704	     11.30128354	      2.09802171	    -22.03569169	      8.69061093	     11.19781904	     10.17479936	      9.62986596	     -5.75924890	      9.58017600
